<svg xmlns="http://www.w3.org/2000/svg" viewBox="0 0 1400 1850" font-family="Inter, system-ui, -apple-system, sans-serif" font-size="12">
  <defs>
    <marker id="arrow" viewBox="0 0 10 10" refX="9" refY="5" markerWidth="6" markerHeight="6" orient="auto-start-reverse"><path d="M 0 0 L 10 5 L 0 10 z" fill="#475569"/></marker>
    <linearGradient id="hg" x1="0" y1="0" x2="1" y2="0"><stop offset="0%" stop-color="#0f172a"/><stop offset="100%" stop-color="#1e293b"/></linearGradient>
    <filter id="sh" x="-2%" y="-2%" width="104%" height="104%"><feDropShadow dx="1" dy="1" stdDeviation="2" flood-opacity="0.1"/></filter>
  </defs>
  <rect width="1400" height="1850" fill="#f8fafc" rx="8"/>

  <!-- Title -->
  <rect x="20" y="15" width="1360" height="60" rx="8" fill="url(#hg)"/>
  <text x="700" y="42" text-anchor="middle" fill="white" font-size="20" font-weight="700">ClawDesk — Complete Request → Response Lineage (Tauri Desktop)</text>
  <text x="700" y="60" text-anchor="middle" fill="#94a3b8" font-size="11">All entry points • OAuth/Auth • 17 Channels • 52 Skills • Extensions • Multi-Agent • 7 Persistence Stores</text>

  <!-- ═══ ENTRY ═══ -->
  <rect x="30" y="88" width="1340" height="24" rx="4" fill="#dbeafe"/>
  <text x="700" y="105" text-anchor="middle" fill="#1e40af" font-size="12" font-weight="600">ENTRY — 4 Message Sources</text>
  <rect x="55" y="118" width="260" height="42" rx="8" fill="#3b82f6" filter="url(#sh)"/>
  <text x="185" y="138" text-anchor="middle" fill="white" font-weight="600" font-size="11">🖥️ Tauri IPC → send_message()</text>
  <text x="185" y="152" text-anchor="middle" fill="#bfdbfe" font-size="8">commands.rs:879</text>
  <rect x="335" y="118" width="260" height="42" rx="8" fill="#6366f1" filter="url(#sh)"/>
  <text x="465" y="138" text-anchor="middle" fill="white" font-weight="600" font-size="11">🌐 Gateway POST /api/v1/message</text>
  <text x="465" y="152" text-anchor="middle" fill="#c7d2fe" font-size="8">routes.rs:71</text>
  <rect x="615" y="118" width="310" height="42" rx="8" fill="#8b5cf6" filter="url(#sh)"/>
  <text x="770" y="138" text-anchor="middle" fill="white" font-weight="600" font-size="11">📱 17 Channels: Discord Telegram Slack Signal…</text>
  <text x="770" y="152" text-anchor="middle" fill="#ddd6fe" font-size="8">ChannelMessageSink • InboundAdapterRegistry</text>
  <rect x="945" y="118" width="260" height="42" rx="8" fill="#0891b2" filter="url(#sh)"/>
  <text x="1075" y="138" text-anchor="middle" fill="white" font-weight="600" font-size="11">⌨️ tmux CLI (15 windows → HTTP)</text>
  <text x="1075" y="152" text-anchor="middle" fill="#a5f3fc" font-size="8">tmux.rs • onboard.rs</text>
  <line x1="185" y1="160" x2="700" y2="185" stroke="#475569" stroke-width="1" marker-end="url(#arrow)"/>
  <line x1="465" y1="160" x2="700" y2="185" stroke="#475569" stroke-width="1" marker-end="url(#arrow)"/>
  <line x1="770" y1="160" x2="700" y2="185" stroke="#475569" stroke-width="1" marker-end="url(#arrow)"/>
  <line x1="1075" y1="160" x2="700" y2="185" stroke="#475569" stroke-width="1" marker-end="url(#arrow)"/>

  <!-- ═══ SECURITY + AUTH ═══ -->
  <rect x="30" y="185" width="1340" height="24" rx="4" fill="#fef2f2"/>
  <text x="700" y="202" text-anchor="middle" fill="#991b1b" font-size="12" font-weight="600">SECURITY &amp; AUTH — Scan • Identity • OAuth • Vault • Profile Rotation</text>
  <rect x="55" y="215" width="210" height="52" rx="6" fill="#fef2f2" stroke="#fca5a5" filter="url(#sh)"/>
  <text x="160" y="234" text-anchor="middle" fill="#991b1b" font-size="10" font-weight="600">🛡️ CascadeScanner</text>
  <text x="160" y="248" text-anchor="middle" fill="#b91c1c" font-size="8">Prompt injection • AC automaton</text>
  <text x="160" y="260" text-anchor="middle" fill="#b91c1c" font-size="8">Critical → block, Audit → log</text>
  <rect x="280" y="215" width="210" height="52" rx="6" fill="#ecfdf5" stroke="#86efac" filter="url(#sh)"/>
  <text x="385" y="234" text-anchor="middle" fill="#065f46" font-size="10" font-weight="600">🔐 GitHub Copilot OAuth</text>
  <text x="385" y="248" text-anchor="middle" fill="#15803d" font-size="8">Device code flow (RFC 8628)</text>
  <text x="385" y="260" text-anchor="middle" fill="#15803d" font-size="8">Token → Copilot API exchange</text>
  <rect x="505" y="215" width="200" height="52" rx="6" fill="#ecfdf5" stroke="#86efac" filter="url(#sh)"/>
  <text x="605" y="234" text-anchor="middle" fill="#065f46" font-size="10" font-weight="600">🔑 OAuth2 + PKCE</text>
  <text x="605" y="248" text-anchor="middle" fill="#15803d" font-size="8">S256 code challenge</text>
  <text x="605" y="260" text-anchor="middle" fill="#15803d" font-size="8">Vertex, custom providers</text>
  <rect x="720" y="215" width="210" height="52" rx="6" fill="#ecfdf5" stroke="#86efac" filter="url(#sh)"/>
  <text x="825" y="234" text-anchor="middle" fill="#065f46" font-size="10" font-weight="600">🗄️ Credential Vault</text>
  <text x="825" y="248" text-anchor="middle" fill="#15803d" font-size="8">OS Keychain • XChaCha20 fallback</text>
  <text x="825" y="260" text-anchor="middle" fill="#15803d" font-size="8">Zeroize on drop • write-through</text>
  <rect x="945" y="215" width="210" height="52" rx="6" fill="#ecfdf5" stroke="#86efac" filter="url(#sh)"/>
  <text x="1050" y="234" text-anchor="middle" fill="#065f46" font-size="10" font-weight="600">🔄 Profile Rotation</text>
  <text x="1050" y="248" text-anchor="middle" fill="#15803d" font-size="8">Weighted RR • exp backoff</text>
  <text x="1050" y="260" text-anchor="middle" fill="#15803d" font-size="8">98.8% availability (3 profiles)</text>
  <line x1="700" y1="267" x2="700" y2="290" stroke="#475569" stroke-width="1.5" marker-end="url(#arrow)"/>

  <!-- ═══ AGENT + MODEL ═══ -->
  <rect x="30" y="290" width="1340" height="24" rx="4" fill="#dcfce7"/>
  <text x="700" y="307" text-anchor="middle" fill="#166534" font-size="12" font-weight="600">AGENT &amp; MODEL — 40 Templates • 10 Providers • LinUCB Routing • Negotiator</text>
  <rect x="100" y="320" width="350" height="45" rx="6" fill="white" stroke="#86efac" filter="url(#sh)"/>
  <text x="275" y="340" text-anchor="middle" fill="#166534" font-size="10" font-weight="600">📋 Agent: state.agents → DesktopAgent (40 templates)</text>
  <text x="275" y="356" text-anchor="middle" fill="#15803d" font-size="9">channel_bindings → effective_agent_id → persona + skills + team</text>
  <rect x="480" y="320" width="310" height="45" rx="6" fill="white" stroke="#86efac" filter="url(#sh)"/>
  <text x="635" y="340" text-anchor="middle" fill="#166534" font-size="10" font-weight="600">🎯 TurnRouter (LinUCB bandit) + ProviderNegotiator</text>
  <text x="635" y="356" text-anchor="middle" fill="#15803d" font-size="9">Per-turn model selection • Capability bitfield (TEXT|SYSTEM=65)</text>
  <rect x="820" y="320" width="350" height="45" rx="6" fill="white" stroke="#86efac" filter="url(#sh)"/>
  <text x="995" y="340" text-anchor="middle" fill="#166534" font-size="10" font-weight="600">🔌 10 Providers: Anthropic OpenAI Gemini Azure Bedrock</text>
  <text x="995" y="356" text-anchor="middle" fill="#15803d" font-size="9">Cohere Ollama Local OpenRouter Copilot + compatible</text>
  <line x1="700" y1="365" x2="700" y2="390" stroke="#475569" stroke-width="1.5" marker-end="url(#arrow)"/>

  <!-- ═══ HISTORY + CONTEXT ═══ -->
  <rect x="30" y="390" width="1340" height="24" rx="4" fill="#fef9c3"/>
  <text x="700" y="407" text-anchor="middle" fill="#854d0e" font-size="12" font-weight="600">HISTORY &amp; CONTEXT — SochDB ACID • LRU • Context Guard (4-level compaction)</text>
  <rect x="100" y="420" width="280" height="40" rx="6" fill="white" stroke="#fde047" filter="url(#sh)"/>
  <text x="240" y="440" text-anchor="middle" fill="#854d0e" font-size="10" font-weight="600">SochDB (WAL,MVCC,HNSW) + HashMap LRU</text>
  <text x="240" y="453" text-anchor="middle" fill="#a16207" font-size="8">Dual-write • compare both → use larger (collision fix)</text>
  <rect x="410" y="420" width="280" height="40" rx="6" fill="white" stroke="#fde047" filter="url(#sh)"/>
  <text x="550" y="440" text-anchor="middle" fill="#854d0e" font-size="10" font-weight="600">Tool History merge (sorted by timestamp)</text>
  <text x="550" y="453" text-anchor="middle" fill="#a16207" font-size="8">tool_history/{chat_id} interleaved with turns</text>
  <rect x="720" y="420" width="350" height="40" rx="6" fill="#fffbeb" stroke="#f59e0b" filter="url(#sh)"/>
  <text x="895" y="440" text-anchor="middle" fill="#92400e" font-size="10" font-weight="600">⚖️ ContextGuard: DropMetadata → SummarizeLLM → Truncate(10) → CircuitBreak</text>
  <text x="895" y="453" text-anchor="middle" fill="#a16207" font-size="8">80% threshold • adaptive thresholds • circuit breaker (3 failures, 60s cooldown)</text>
  <line x1="700" y1="460" x2="700" y2="485" stroke="#475569" stroke-width="1.5" marker-end="url(#arrow)"/>

  <!-- ═══ PROMPT PIPELINE ═══ -->
  <rect x="30" y="485" width="1340" height="24" rx="4" fill="#f3e8ff"/>
  <text x="700" y="502" text-anchor="middle" fill="#6b21a8" font-size="12" font-weight="600">PROMPT PIPELINE — Memory Recall • 52 Skills (knapsack) • PromptBuilder • Team Roster • Cache</text>
  <rect x="55" y="515" width="190" height="48" rx="6" fill="white" stroke="#c084fc" filter="url(#sh)"/>
  <text x="150" y="533" text-anchor="middle" fill="#6b21a8" font-size="10" font-weight="600">① Memory Recall</text>
  <text x="150" y="548" text-anchor="middle" fill="#7c3aed" font-size="8">BM25 + HNSW (top 10)</text>
  <text x="150" y="558" text-anchor="middle" fill="#7c3aed" font-size="7">Extract signals → boost skills</text>
  <rect x="260" y="515" width="190" height="48" rx="6" fill="white" stroke="#c084fc" filter="url(#sh)"/>
  <text x="355" y="533" text-anchor="middle" fill="#6b21a8" font-size="10" font-weight="600">② Skill Scoring</text>
  <text x="355" y="548" text-anchor="middle" fill="#7c3aed" font-size="8">Trigger eval + knapsack 8K</text>
  <text x="355" y="558" text-anchor="middle" fill="#7c3aed" font-size="7">52 bundled + user skills + env</text>
  <rect x="465" y="515" width="190" height="48" rx="6" fill="white" stroke="#c084fc" filter="url(#sh)"/>
  <text x="560" y="533" text-anchor="middle" fill="#6b21a8" font-size="10" font-weight="600">③ PromptBuilder</text>
  <text x="560" y="548" text-anchor="middle" fill="#7c3aed" font-size="8">identity+safety+skills+runtime</text>
  <text x="560" y="558" text-anchor="middle" fill="#7c3aed" font-size="7">128K budget, section caps</text>
  <rect x="670" y="515" width="190" height="48" rx="6" fill="white" stroke="#c084fc" filter="url(#sh)"/>
  <text x="765" y="533" text-anchor="middle" fill="#6b21a8" font-size="10" font-weight="600">④ Team Roster</text>
  <text x="765" y="548" text-anchor="middle" fill="#7c3aed" font-size="8">Router: inject all members</text>
  <text x="765" y="558" text-anchor="middle" fill="#7c3aed" font-size="7">MANDATORY spawn_subagent</text>
  <rect x="875" y="515" width="180" height="48" rx="6" fill="white" stroke="#c084fc" filter="url(#sh)"/>
  <text x="965" y="533" text-anchor="middle" fill="#6b21a8" font-size="10" font-weight="600">⑤ Memory Inject</text>
  <text x="965" y="548" text-anchor="middle" fill="#7c3aed" font-size="8">Pre-user recency bias</text>
  <text x="965" y="558" text-anchor="middle" fill="#7c3aed" font-size="7">System msg before last user</text>
  <rect x="1070" y="515" width="180" height="48" rx="6" fill="#ecfdf5" stroke="#6ee7b7" filter="url(#sh)"/>
  <text x="1160" y="533" text-anchor="middle" fill="#065f46" font-size="10" font-weight="600">⑥ Semantic Cache</text>
  <text x="1160" y="548" text-anchor="middle" fill="#047857" font-size="8">ANN + exact match</text>
  <text x="1160" y="558" text-anchor="middle" fill="#047857" font-size="7">Hit → skip LLM ✅</text>
  <line x1="700" y1="563" x2="700" y2="590" stroke="#475569" stroke-width="1.5" marker-end="url(#arrow)"/>

  <!-- ═══ TOOLS + EXTENSIONS ═══ -->
  <rect x="30" y="590" width="1340" height="24" rx="4" fill="#fff1f2"/>
  <text x="700" y="607" text-anchor="middle" fill="#9f1239" font-size="12" font-weight="600">TOOLS &amp; EXTENSIONS — 15+ Tools • Plugin Hooks (14 phases) • MCP Bridge • Browser CDP</text>
  <rect x="55" y="620" width="130" height="36" rx="5" fill="white" stroke="#fda4af" filter="url(#sh)"/>
  <text x="120" y="636" text-anchor="middle" fill="#9f1239" font-size="9" font-weight="600">shell_exec</text>
  <text x="120" y="650" text-anchor="middle" fill="#be123c" font-size="7">+ file r/w/edit + grep</text>
  <rect x="195" y="620" width="125" height="36" rx="5" fill="white" stroke="#fda4af" filter="url(#sh)"/>
  <text x="257" y="636" text-anchor="middle" fill="#9f1239" font-size="9" font-weight="600">memory_*</text>
  <text x="257" y="650" text-anchor="middle" fill="#be123c" font-size="7">recall • store • forget</text>
  <rect x="330" y="620" width="130" height="36" rx="5" fill="white" stroke="#fda4af" filter="url(#sh)"/>
  <text x="395" y="636" text-anchor="middle" fill="#9f1239" font-size="9" font-weight="600">spawn_subagent</text>
  <text x="395" y="650" text-anchor="middle" fill="#be123c" font-size="7">parallel JoinSet</text>
  <rect x="470" y="620" width="130" height="36" rx="5" fill="white" stroke="#fda4af" filter="url(#sh)"/>
  <text x="535" y="636" text-anchor="middle" fill="#9f1239" font-size="9" font-weight="600">dynamic_spawn</text>
  <text x="535" y="650" text-anchor="middle" fill="#be123c" font-size="7">ephemeral (depth 5)</text>
  <rect x="610" y="620" width="110" height="36" rx="5" fill="white" stroke="#fda4af" filter="url(#sh)"/>
  <text x="665" y="636" text-anchor="middle" fill="#9f1239" font-size="9" font-weight="600">ask_human</text>
  <text x="665" y="650" text-anchor="middle" fill="#be123c" font-size="7">fan-out channels</text>
  <rect x="730" y="620" width="120" height="36" rx="5" fill="white" stroke="#fda4af" filter="url(#sh)"/>
  <text x="790" y="636" text-anchor="middle" fill="#9f1239" font-size="9" font-weight="600">message_send</text>
  <text x="790" y="650" text-anchor="middle" fill="#be123c" font-size="7">cross-channel</text>
  <rect x="860" y="620" width="110" height="36" rx="5" fill="white" stroke="#fda4af" filter="url(#sh)"/>
  <text x="915" y="636" text-anchor="middle" fill="#9f1239" font-size="9" font-weight="600">MCP bridge</text>
  <text x="915" y="650" text-anchor="middle" fill="#be123c" font-size="7">connect + call</text>
  <rect x="980" y="620" width="110" height="36" rx="5" fill="white" stroke="#fda4af" filter="url(#sh)"/>
  <text x="1035" y="636" text-anchor="middle" fill="#9f1239" font-size="9" font-weight="600">Browser CDP</text>
  <text x="1035" y="650" text-anchor="middle" fill="#be123c" font-size="7">nav • click • screenshot</text>
  <rect x="1100" y="620" width="140" height="36" rx="5" fill="white" stroke="#fda4af" filter="url(#sh)"/>
  <text x="1170" y="636" text-anchor="middle" fill="#9f1239" font-size="9" font-weight="600">web_search + http</text>
  <text x="1170" y="650" text-anchor="middle" fill="#be123c" font-size="7">+ process start/poll</text>
  <!-- Extensions row -->
  <rect x="55" y="664" width="540" height="32" rx="5" fill="#fdf4ff" stroke="#d946ef" filter="url(#sh)"/>
  <text x="325" y="684" text-anchor="middle" fill="#86198f" font-size="9" font-weight="600">🔌 Plugin Host: 14 Hooks (Boot→BeforeAgent→BeforeTool→AfterTool→PostTurn→Shutdown) • Sandbox CAS • RAII guards</text>
  <rect x="610" y="664" width="630" height="32" rx="5" fill="#fdf4ff" stroke="#d946ef" filter="url(#sh)"/>
  <text x="925" y="684" text-anchor="middle" fill="#86198f" font-size="9" font-weight="600">📦 52 Bundled Skills (include_dir!) • openclaw adapter (SKILL.md) • trigger eval • env injection • hot-reload (ArcSwap)</text>
  <line x1="700" y1="696" x2="700" y2="720" stroke="#475569" stroke-width="1.5" marker-end="url(#arrow)"/>

  <!-- ═══ RUNNER ═══ -->
  <rect x="200" y="720" width="1000" height="42" rx="8" fill="#1e293b" filter="url(#sh)"/>
  <text x="700" y="740" text-anchor="middle" fill="white" font-size="12" font-weight="600">AgentRunner::builder(provider, tools, config, cancel) .with_skill_provider() .with_hook_manager()</text>
  <text x="700" y="756" text-anchor="middle" fill="#94a3b8" font-size="9">.with_events() .with_approval_gate() .with_context_guard() .with_profile_rotator() .with_sandbox_gate() .with_memory_recall() .with_channel_context()</text>
  <line x1="700" y1="762" x2="700" y2="790" stroke="#475569" stroke-width="1.5" marker-end="url(#arrow)"/>

  <!-- ═══ LLM LOOP ═══ -->
  <rect x="30" y="790" width="1340" height="24" rx="4" fill="#fef3c7"/>
  <text x="700" y="807" text-anchor="middle" fill="#92400e" font-size="12" font-weight="600">LLM AGENTIC LOOP — run_with_failover() • max 25 rounds • parallel tool execution</text>
  <rect x="150" y="820" width="620" height="130" rx="8" fill="white" stroke="#f59e0b" stroke-width="2" filter="url(#sh)"/>
  <text x="460" y="842" text-anchor="middle" fill="#92400e" font-size="13" font-weight="700">🔄 Agentic Loop (shared by all entry paths)</text>
  <rect x="175" y="852" width="570" height="20" rx="3" fill="#fef9c3"/>
  <text x="460" y="867" text-anchor="middle" fill="#78350f" font-size="10">① provider.stream() → StreamChunk → real-time UI events</text>
  <rect x="175" y="877" width="570" height="20" rx="3" fill="#fef9c3"/>
  <text x="460" y="892" text-anchor="middle" fill="#78350f" font-size="10">② Parse tool_calls (Qwen/DeepSeek recovery for malformed JSON)</text>
  <rect x="175" y="902" width="570" height="20" rx="3" fill="#fef9c3"/>
  <text x="460" y="917" text-anchor="middle" fill="#78350f" font-size="10">③ Execute tools in parallel (JoinSet) → results back to LLM</text>
  <rect x="175" y="927" width="570" height="18" rx="3" fill="#fef9c3"/>
  <text x="460" y="940" text-anchor="middle" fill="#78350f" font-size="10">④ Loop until stop | max_rounds=25 | cancel token</text>
  <!-- Failover -->
  <rect x="810" y="820" width="440" height="130" rx="6" fill="#fff7ed" stroke="#fb923c" filter="url(#sh)"/>
  <text x="1030" y="842" text-anchor="middle" fill="#9a3412" font-size="11" font-weight="600">Failover DFA (4 levels)</text>
  <text x="1030" y="862" text-anchor="middle" fill="#c2410c" font-size="10">L1: Retry + decorrelated jitter backoff</text>
  <text x="1030" y="880" text-anchor="middle" fill="#c2410c" font-size="10">L2: Rotate auth profile (weighted RR, exponential)</text>
  <text x="1030" y="898" text-anchor="middle" fill="#c2410c" font-size="10">L3: Model fallback chain (configurable)</text>
  <text x="1030" y="916" text-anchor="middle" fill="#c2410c" font-size="10">L4: Thinking-level downgrade on overflow</text>
  <text x="1030" y="940" text-anchor="middle" fill="#ea580c" font-size="9" font-style="italic">Empty response: 3×2s retry • Context overflow: adaptive compaction</text>
  <line x1="770" y1="885" x2="810" y2="885" stroke="#fb923c" stroke-width="1.5" marker-end="url(#arrow)"/>
  <line x1="700" y1="950" x2="700" y2="980" stroke="#475569" stroke-width="1.5" marker-end="url(#arrow)"/>

  <!-- ═══ CROSS CHANNEL ═══ -->
  <rect x="30" y="980" width="1340" height="24" rx="4" fill="#fce7f3"/>
  <text x="700" y="997" text-anchor="middle" fill="#9d174d" font-size="12" font-weight="600">MULTI-AGENT &amp; CROSS-CHANNEL — message_send • spawn_subagent • ask_human fan-out • A2A</text>
  <rect x="55" y="1010" width="310" height="48" rx="6" fill="white" stroke="#f9a8d4" filter="url(#sh)"/>
  <text x="210" y="1028" text-anchor="middle" fill="#9d174d" font-size="10" font-weight="600">📨 Cross-channel: message_send tool</text>
  <text x="210" y="1043" text-anchor="middle" fill="#be185d" font-size="8">Fast-path: "say X to discord" → O(1) direct send</text>
  <text x="210" y="1053" text-anchor="middle" fill="#be185d" font-size="8">Channel origins persisted for reply routing</text>
  <rect x="385" y="1010" width="310" height="48" rx="6" fill="white" stroke="#f9a8d4" filter="url(#sh)"/>
  <text x="540" y="1028" text-anchor="middle" fill="#9d174d" font-size="10" font-weight="600">🤖 Multi-agent: spawn + dynamic_spawn</text>
  <text x="540" y="1043" text-anchor="middle" fill="#be185d" font-size="8">Parallel delegation via JoinSet • depth limit 5</text>
  <text x="540" y="1053" text-anchor="middle" fill="#be185d" font-size="8">Router agent synthesizes results from specialists</text>
  <rect x="715" y="1010" width="310" height="48" rx="6" fill="white" stroke="#f9a8d4" filter="url(#sh)"/>
  <text x="870" y="1028" text-anchor="middle" fill="#9d174d" font-size="10" font-weight="600">🧠 ask_human: fan-out to all channels</text>
  <text x="870" y="1043" text-anchor="middle" fill="#be185d" font-size="8">Broadcast question → first reply wins</text>
  <text x="870" y="1053" text-anchor="middle" fill="#be185d" font-size="8">UI popup + external channels simultaneously</text>
  <rect x="1045" y="1010" width="270" height="48" rx="6" fill="white" stroke="#f9a8d4" filter="url(#sh)"/>
  <text x="1180" y="1028" text-anchor="middle" fill="#9d174d" font-size="10" font-weight="600">🔗 A2A: Thread-as-Agent</text>
  <text x="1180" y="1043" text-anchor="middle" fill="#be185d" font-size="8">Every thread → A2A-capable agent</text>
  <text x="1180" y="1053" text-anchor="middle" fill="#be185d" font-size="8">Task delegation + capability cards</text>
  <line x1="700" y1="1058" x2="700" y2="1088" stroke="#475569" stroke-width="1.5" marker-end="url(#arrow)"/>

  <!-- ═══ PERSISTENCE ═══ -->
  <rect x="30" y="1088" width="1340" height="24" rx="4" fill="#e0e7ff"/>
  <text x="700" y="1105" text-anchor="middle" fill="#3730a3" font-size="12" font-weight="600">PERSISTENCE — 7 Stores: SochDB • LRU • SemanticCache • KnowledgeGraph • Memory • Audit • Origins</text>
  <rect x="55" y="1118" width="155" height="40" rx="5" fill="white" stroke="#a5b4fc" filter="url(#sh)"/>
  <text x="132" y="1136" text-anchor="middle" fill="#3730a3" font-size="9" font-weight="600">SochDB (WAL)</text>
  <text x="132" y="1150" text-anchor="middle" fill="#4f46e5" font-size="7">ConversationStore</text>
  <rect x="225" y="1118" width="145" height="40" rx="5" fill="white" stroke="#a5b4fc" filter="url(#sh)"/>
  <text x="297" y="1136" text-anchor="middle" fill="#3730a3" font-size="9" font-weight="600">LRU HashMap</text>
  <text x="297" y="1150" text-anchor="middle" fill="#4f46e5" font-size="7">dual-write cache</text>
  <rect x="385" y="1118" width="155" height="40" rx="5" fill="white" stroke="#a5b4fc" filter="url(#sh)"/>
  <text x="462" y="1136" text-anchor="middle" fill="#3730a3" font-size="9" font-weight="600">Semantic Cache</text>
  <text x="462" y="1150" text-anchor="middle" fill="#4f46e5" font-size="7">ANN + embeddings</text>
  <rect x="555" y="1118" width="155" height="40" rx="5" fill="white" stroke="#a5b4fc" filter="url(#sh)"/>
  <text x="632" y="1136" text-anchor="middle" fill="#3730a3" font-size="9" font-weight="600">Knowledge Graph</text>
  <text x="632" y="1150" text-anchor="middle" fill="#4f46e5" font-size="7">agent→session edges</text>
  <rect x="725" y="1118" width="145" height="40" rx="5" fill="white" stroke="#a5b4fc" filter="url(#sh)"/>
  <text x="797" y="1136" text-anchor="middle" fill="#3730a3" font-size="9" font-weight="600">Memory Index</text>
  <text x="797" y="1150" text-anchor="middle" fill="#4f46e5" font-size="7">async background</text>
  <rect x="885" y="1118" width="145" height="40" rx="5" fill="white" stroke="#a5b4fc" filter="url(#sh)"/>
  <text x="957" y="1136" text-anchor="middle" fill="#3730a3" font-size="9" font-weight="600">Audit + Trace</text>
  <text x="957" y="1150" text-anchor="middle" fill="#4f46e5" font-size="7">SochDB TraceStore</text>
  <rect x="1045" y="1118" width="175" height="40" rx="5" fill="white" stroke="#a5b4fc" filter="url(#sh)"/>
  <text x="1132" y="1136" text-anchor="middle" fill="#3730a3" font-size="9" font-weight="600">Channel Origins</text>
  <text x="1132" y="1150" text-anchor="middle" fill="#4f46e5" font-size="7">cross-channel reply map</text>
  <line x1="700" y1="1158" x2="700" y2="1185" stroke="#475569" stroke-width="1.5" marker-end="url(#arrow)"/>

  <!-- Response -->
  <rect x="400" y="1185" width="600" height="42" rx="20" fill="#16a34a" filter="url(#sh)"/>
  <text x="700" y="1211" text-anchor="middle" fill="white" font-weight="600" font-size="14">✅ Response → UI + All 17 Connected Channels</text>

  <!-- ═══ CHANNELS ═══ -->
  <rect x="30" y="1250" width="1340" height="24" rx="4" fill="#f0fdf4"/>
  <text x="700" y="1267" text-anchor="middle" fill="#166534" font-size="12" font-weight="600">17 CHANNEL ADAPTERS + Factory (open-closed extensibility)</text>
  <rect x="55" y="1280" width="120" height="28" rx="5" fill="white" stroke="#86efac" filter="url(#sh)"/>
  <text x="115" y="1298" text-anchor="middle" fill="#166534" font-size="9" font-weight="600">💬 Discord</text>
  <rect x="185" y="1280" width="120" height="28" rx="5" fill="white" stroke="#86efac" filter="url(#sh)"/>
  <text x="245" y="1298" text-anchor="middle" fill="#166534" font-size="9" font-weight="600">📱 Telegram</text>
  <rect x="315" y="1280" width="100" height="28" rx="5" fill="white" stroke="#86efac" filter="url(#sh)"/>
  <text x="365" y="1298" text-anchor="middle" fill="#166534" font-size="9" font-weight="600">💼 Slack</text>
  <rect x="425" y="1280" width="115" height="28" rx="5" fill="white" stroke="#86efac" filter="url(#sh)"/>
  <text x="482" y="1298" text-anchor="middle" fill="#166534" font-size="9" font-weight="600">📞 WhatsApp</text>
  <rect x="550" y="1280" width="100" height="28" rx="5" fill="white" stroke="#86efac" filter="url(#sh)"/>
  <text x="600" y="1298" text-anchor="middle" fill="#166534" font-size="9" font-weight="600">🔒 Signal</text>
  <rect x="660" y="1280" width="100" height="28" rx="5" fill="white" stroke="#86efac" filter="url(#sh)"/>
  <text x="710" y="1298" text-anchor="middle" fill="#166534" font-size="9" font-weight="600">🔗 Matrix</text>
  <rect x="770" y="1280" width="90" height="28" rx="5" fill="white" stroke="#86efac" filter="url(#sh)"/>
  <text x="815" y="1298" text-anchor="middle" fill="#166534" font-size="9" font-weight="600">📧 Email</text>
  <rect x="870" y="1280" width="80" height="28" rx="5" fill="white" stroke="#86efac" filter="url(#sh)"/>
  <text x="910" y="1298" text-anchor="middle" fill="#166534" font-size="9" font-weight="600">⌨️ IRC</text>
  <rect x="960" y="1280" width="110" height="28" rx="5" fill="white" stroke="#86efac" filter="url(#sh)"/>
  <text x="1015" y="1298" text-anchor="middle" fill="#166534" font-size="9" font-weight="600">👥 Teams</text>
  <rect x="1080" y="1280" width="120" height="28" rx="5" fill="white" stroke="#86efac" filter="url(#sh)"/>
  <text x="1140" y="1298" text-anchor="middle" fill="#166534" font-size="9" font-weight="600">🐘 Mastodon</text>
  <rect x="55" y="1315" width="110" height="28" rx="5" fill="white" stroke="#86efac" filter="url(#sh)"/>
  <text x="110" y="1333" text-anchor="middle" fill="#166534" font-size="9" font-weight="600">🔔 Webhook</text>
  <rect x="175" y="1315" width="110" height="28" rx="5" fill="white" stroke="#86efac" filter="url(#sh)"/>
  <text x="230" y="1333" text-anchor="middle" fill="#166534" font-size="9" font-weight="600">🌐 WebChat</text>
  <rect x="295" y="1315" width="110" height="28" rx="5" fill="white" stroke="#86efac" filter="url(#sh)"/>
  <text x="350" y="1333" text-anchor="middle" fill="#166534" font-size="9" font-weight="600">🏠 Internal</text>
  <rect x="415" y="1315" width="120" height="28" rx="5" fill="white" stroke="#86efac" filter="url(#sh)"/>
  <text x="475" y="1333" text-anchor="middle" fill="#166534" font-size="9" font-weight="600">📝 Markdown</text>
  <rect x="545" y="1315" width="160" height="28" rx="5" fill="#fef9c3" stroke="#fde047" filter="url(#sh)"/>
  <text x="625" y="1333" text-anchor="middle" fill="#92400e" font-size="9" font-weight="600">⊕ ChannelFactory</text>
  <text x="720" y="1333" fill="#64748b" font-size="9">(register new at runtime)</text>

  <!-- Legend -->
  <rect x="30" y="1365" width="1340" height="50" rx="6" fill="#f1f5f9" stroke="#cbd5e1"/>
  <text x="50" y="1385" fill="#334155" font-size="10" font-weight="600">Legend:</text>
  <rect x="50" y="1393" width="8" height="8" fill="#3b82f6" rx="1"/><text x="63" y="1401" fill="#475569" font-size="8">Entry</text>
  <rect x="105" y="1393" width="8" height="8" fill="#fef2f2" stroke="#fca5a5" rx="1"/><text x="118" y="1401" fill="#475569" font-size="8">Security</text>
  <rect x="175" y="1393" width="8" height="8" fill="#ecfdf5" stroke="#86efac" rx="1"/><text x="188" y="1401" fill="#475569" font-size="8">Auth/OAuth</text>
  <rect x="255" y="1393" width="8" height="8" fill="#dcfce7" rx="1"/><text x="268" y="1401" fill="#475569" font-size="8">Agent</text>
  <rect x="310" y="1393" width="8" height="8" fill="#fef9c3" rx="1"/><text x="323" y="1401" fill="#475569" font-size="8">Context</text>
  <rect x="375" y="1393" width="8" height="8" fill="#f3e8ff" rx="1"/><text x="388" y="1401" fill="#475569" font-size="8">Prompt</text>
  <rect x="435" y="1393" width="8" height="8" fill="#fff1f2" rx="1"/><text x="448" y="1401" fill="#475569" font-size="8">Tools</text>
  <rect x="490" y="1393" width="8" height="8" fill="#fdf4ff" stroke="#d946ef" rx="1"/><text x="503" y="1401" fill="#475569" font-size="8">Extensions</text>
  <rect x="570" y="1393" width="8" height="8" fill="#fef3c7" rx="1"/><text x="583" y="1401" fill="#475569" font-size="8">LLM Loop</text>
  <rect x="635" y="1393" width="8" height="8" fill="#fce7f3" rx="1"/><text x="648" y="1401" fill="#475569" font-size="8">Multi-Agent</text>
  <rect x="720" y="1393" width="8" height="8" fill="#e0e7ff" rx="1"/><text x="733" y="1401" fill="#475569" font-size="8">Persistence</text>
  <rect x="800" y="1393" width="8" height="8" fill="#f0fdf4" rx="1"/><text x="813" y="1401" fill="#475569" font-size="8">Channels</text>
</svg>
